<?xml version="1.0" standalone="no"?> <!DOCTYPE svg PUBLIC "-//W3C//DTD SVG 1.0//EN" "http://www.w3.org/TR/2001/REC-SVG-20010904/DTD/svg10.dtd" > <svg xmlns="http://www.w3.org/2000/svg" width="100%" height="100%">
<defs >
<font id="futuraltbook" horiz-adv-x="434" ><font-face
    font-family="Futura LT Book"
    units-per-em="1000"
    panose-1="2 0 5 4 3 0 0 2 0 3"
    ascent="1006"
    descent="-293"
    alphabetic="0" />
<missing-glyph horiz-adv-x="500" d="M442 8V504H58V8H442ZM50 512H450V0H50V512Z" />
<glyph unicode=" " glyph-name="space" horiz-adv-x="308" />
<glyph unicode="!" glyph-name="exclam" horiz-adv-x="338" d="M128 754H210V153H128V754ZM169 99Q192 99 208 83T225 44Q225 21 209 4T169 -13Q146 -13 130 4T113 44Q113 67 129 83T169 99Z" />
<glyph unicode="&quot;" glyph-name="quotedbl" horiz-adv-x="457" d="M355 754L337 426H279L261 754H355ZM196 754L178 426H120L102 754H196Z" />
<glyph unicode="#" glyph-name="numbersign" horiz-adv-x="616" d="M237 301H360L389 472H266L237 301ZM313 754L277 550H401L436 754H515L480 550H572V472H467L438 301H539V223H424L384 0H308L347 223H224L182 0H107L146 223H44V301H159L188 472H81V550H200L236
754H313Z" />
<glyph unicode="$" glyph-name="dollar" horiz-adv-x="616" d="M290 374Q256 388 224 405T168 445T128 499T113 572Q113 611 126 643T164 700T220 740T290 761V864H356V761Q407 754 449 723T514 647L448 604Q433 630 411 652T356 681V434Q393 418 427 400T486
357T527 299T542 221Q542 179 528 142T490 75T431 24T356 -5V-115H290V-11Q249 -9 213 6T149 48T101 109T74 183L155 206Q158 180 169 156T199 114T240 83T290 69V374ZM290 682Q250 674 224 643T197 569Q197 548 205 532T227 503T256 480T290 463V682ZM356 76Q404
92 431 130T458 219Q458 243 450 262T427 296T394 323T356 344V76Z" />
<glyph unicode="%" glyph-name="percent" horiz-adv-x="797" d="M598 252Q577 252 558 244T525 223T503 191T494 151Q494 130 502 112T525 81T558 59T598 51Q619 51 638 59T671 80T693 112T702 151Q702 172 694 190T671 222T638 244T598 252ZM598 316Q632 316
663 304T716 269T752 216T766 151Q766 116 753 87T716 35T663 0T598 -13Q564 -13 534 -1T480 34T444 86T430 151Q430 186 443 216T479 268T532 303T598 316ZM637 743L201 -13L158 13L597 767L637 743ZM200 703Q179 703 160 695T127 674T105 642T96 602Q96 581 104
563T127 532T160 510T200 502Q221 502 240 510T273 531T295 563T304 602Q304 623 296 641T273 673T240 695T200 703ZM200 767Q234 767 265 755T318 720T354 667T368 602Q368 567 355 538T318 486T265 451T200 438Q166 438 136 450T82 485T46 537T32 602Q32 637
45 667T81 719T134 754T200 767Z" />
<glyph unicode="&amp;" glyph-name="ampersand" horiz-adv-x="695" d="M246 361Q225 346 203 330T162 295T133 252T121 199Q121 172 132 148T161 105T203 75T254 63Q282 63 309 73T360 98T407 132T450 169L282 385L246 361ZM500 106Q475 83 448 62T390 24T327
-3T259 -13Q216 -13 176 2T106 45T57 110T39 193Q39 240 54 276T96 341T155 394T224 441L233 447Q220 465 207 483T183 521T165 562T158 607Q158 643 170 672T205 723T257 755T323 767Q355 767 384 756T435 726T470 679T483 619Q483 585 472 559T441 510T398 468T350
431L509 228L594 327L655 277L559 165L687 0H581L500 106ZM309 497Q325 509 342 521T372 548T394 579T403 619Q403 654 379 675T321 696Q286 696 262 672T238 613Q238 584 253 562T284 517L302 492L309 497Z" />
<glyph unicode="&apos;" glyph-name="quotesingle" horiz-adv-x="289" d="M192 754L174 426H116L98 754H192Z" />
<glyph unicode="(" glyph-name="parenleft" horiz-adv-x="287" d="M255 754Q212 640 194 519T175 274Q175 150 193 29T255 -206L184 -240Q158 -184 141 -120T113 12T98 146T93 274Q93 335 97 402T112 536T140 667T184 788L255 754Z" />
<glyph unicode=")" glyph-name="parenright" horiz-adv-x="287" d="M103 788Q129 732 146 668T174 536T189 402T194 274Q194 213 190 146T175 12T147 -119T103 -240L32 -206Q75 -92 93 29T112 274Q112 398 94 519T32 754L103 788Z" />
<glyph unicode="*" glyph-name="asterisk" horiz-adv-x="592" d="M259 754H334L328 614L460 663L484 591L348 553L435 443L374 398L296 516L218 398L157 443L245 553L109 591L133 663L265 614L259 754Z" />
<glyph unicode="+" glyph-name="plus" horiz-adv-x="616" d="M347 498V295H550V217H347V14H269V217H66V295H269V498H347Z" />
<glyph unicode="," glyph-name="comma" horiz-adv-x="308" d="M225 84L112 -172L58 -150L151 110L225 84Z" />
<glyph unicode="-" glyph-name="hyphenminus" horiz-adv-x="208" d="M207 278V204H2V278H207Z" />
<glyph unicode="." glyph-name="period" horiz-adv-x="308" d="M154 99Q177 99 193 83T210 44Q210 21 194 4T154 -13Q131 -13 115 4T98 44Q98 67 114 83T154 99Z" />
<glyph unicode="/" glyph-name="slash" horiz-adv-x="570" d="M552 795L83 -157L18 -127L486 825L552 795Z" />
<glyph unicode="0" glyph-name="zero" horiz-adv-x="616" d="M308 689Q255 689 219 655T161 571T130 467T122 372Q123 346 127 313T140 245T163 179T198 121T246 81T308 65Q343 65 370 80T417 121T452 178T476 245T489 312T494 372Q495 412 486 466T455 570T397
654T308 689ZM308 767Q356 767 394 749T463 701T514 630T550 547T571 459T578 376Q578 306 560 237T508 112T423 22T308 -13Q243 -13 193 21T109 111T56 236T38 376Q38 415 44 459T65 546T101 630T153 700T221 749T308 767Z" />
<glyph unicode="1" glyph-name="one" horiz-adv-x="616" d="M158 676L202 754H367V0H283V676H158Z" />
<glyph unicode="2" glyph-name="two" horiz-adv-x="616" d="M529 78V0H41L394 417Q417 444 431 475T445 543Q445 574 433 601T401 647T353 678T295 689Q261 689 233 677T186 645T155 596T143 534H59Q60 583 78 626T127 700T200 749T292 767Q339 767 382 751T457
705T509 634T529 544Q529 451 472 385L211 78H529Z" />
<glyph unicode="3" glyph-name="three" horiz-adv-x="616" d="M271 435Q301 436 328 442T375 461T408 498T420 557Q420 617 384 653T288 689Q231 689 200 656T164 568H81Q90 658 143 712T290 767Q335 767 374 752T442 710T487 645T504 561Q504 511 479 465T407
396Q462 371 488 320T515 211Q515 161 497 120T447 50T372 4T281 -13Q235 -13 195 2T124 44T76 110T57 196H139Q140 167 152 143T184 102T229 75T284 65Q315 65 342 77T389 109T420 157T431 216Q431 288 386 323T271 357V435Z" />
<glyph unicode="4" glyph-name="four" horiz-adv-x="616" d="M392 541H390L153 200H392V541ZM569 200V122H476V0H392V122H6L474 796H476V200H569Z" />
<glyph unicode="5" glyph-name="five" horiz-adv-x="616" d="M282 676L233 515L278 519Q334 519 380 499T459 443T510 359T529 256Q529 197 508 148T449 63T361 7T252 -13Q177 -13 118 22T21 122L88 170Q114 124 157 95T255 65Q297 65 331 79T391 120T431 181T445
258Q445 298 431 331T391 389T331 427T257 441Q218 441 182 428T114 393L223 754H523V676H282Z" />
<glyph unicode="6" glyph-name="six" horiz-adv-x="616" d="M304 65Q341 65 373 79T429 117T466 173T480 243Q480 280 466 311T428 366T372 403T304 417Q267 417 235 404T179 367T142 312T128 243Q128 206 141 174T179 117T235 79T304 65ZM426 720L252 486L254
484Q285 495 320 495Q371 495 415 475T493 422T545 343T564 246Q564 192 544 145T488 63T405 7T304 -13Q250 -13 203 7T121 63T65 145T44 245Q44 297 64 341T113 426L363 767L426 720Z" />
<glyph unicode="7" glyph-name="seven" horiz-adv-x="616" d="M51 676V754H607L101 -13L35 26L463 676H51Z" />
<glyph unicode="8" glyph-name="eight" horiz-adv-x="616" d="M308 689Q281 689 257 679T216 651T188 610T177 559Q177 532 187 508T215 466T257 438T308 427Q335 427 359 437T400 466T428 508T439 559Q439 586 429 609T401 651T359 679T308 689ZM308 767Q352
767 390 751T457 707T502 641T519 557Q519 507 495 462T427 392Q481 368 509 319T538 211Q538 162 521 121T472 50T399 4T308 -13Q259 -13 217 3T144 50T96 121T78 211Q78 269 106 318T189 392Q145 417 121 462T97 557Q97 602 113 640T158 707T225 751T308 767ZM308
355Q277 355 251 344T205 313T174 267T162 210Q162 180 173 154T204 108T250 77T308 65Q339 65 365 76T411 107T442 153T454 210Q454 240 443 266T412 312T366 343T308 355Z" />
<glyph unicode="9" glyph-name="nine" horiz-adv-x="616" d="M305 689Q268 689 236 675T180 637T143 581T129 513Q129 476 142 445T180 390T236 353T305 339Q341 339 373 352T429 389T467 444T481 513Q481 549 467 581T429 637T373 675T305 689ZM182 30L356 269L354
271Q339 266 323 264T289 261Q237 261 193 280T115 334T64 413T45 510Q45 564 65 610T121 692T204 747T305 767Q358 767 405 747T488 692T544 611T565 510Q565 459 545 415T495 329L245 -13L182 30Z" />
<glyph unicode=":" glyph-name="colon" horiz-adv-x="308" d="M154 483Q177 483 193 467T210 428Q210 405 194 388T154 371Q131 371 115 388T98 428Q98 451 114 467T154 483ZM154 99Q177 99 193 83T210 44Q210 21 194 4T154 -13Q131 -13 115 4T98 44Q98 67 114
83T154 99Z" />
<glyph unicode=";" glyph-name="semicolon" horiz-adv-x="308" d="M179 483Q202 483 218 467T235 428Q235 405 219 388T179 371Q156 371 140 388T123 428Q123 451 139 467T179 483ZM227 84L114 -172L60 -150L153 110L227 84Z" />
<glyph unicode="&lt;" glyph-name="less" horiz-adv-x="616" d="M550 413L182 256L550 99V14L66 221V291L550 498V413Z" />
<glyph unicode="=" glyph-name="equal" horiz-adv-x="616" d="M550 217V139H66V217H550ZM550 373V295H66V373H550Z" />
<glyph unicode="&gt;" glyph-name="greater" horiz-adv-x="616" d="M66 498L550 291V221L66 14V99L434 256L66 413V498Z" />
<glyph unicode="?" glyph-name="question" horiz-adv-x="488" d="M242 99Q265 99 281 83T298 44Q298 21 282 4T242 -13Q219 -13 203 4T186 44Q186 67 202 83T242 99ZM406 328Q407 292 396 261T362 206T310 169T243 155Q208 155 178 167T127 202T93 253T80 318Q80
352 90 376T120 419T163 449T217 471Q241 478 264 485T304 505T333 536T344 586Q344 632 315 661T241 690Q198 690 171 662T143 591Q143 567 149 543H66L62 596Q62 635 77 666T117 720T175 755T246 767Q284 767 317 753T374 715T412 658T426 587Q426 550 413 514T372
453Q346 430 309 418T239 395Q207 386 185 368T162 312Q162 278 186 255T244 232Q265 232 280 240T305 261T320 292T325 328H406Z" />
<glyph unicode="@" glyph-name="at" horiz-adv-x="800" d="M542 566H613L563 311Q560 299 558 284T555 256Q555 243 559 235T577 226Q594 226 613 242T650 286T679 347T693 417Q697 483 677 534T619 622T529 676T415 695Q348 695 292 671T195 605T131 504T108
377Q108 305 133 247T202 146T305 82T432 59Q559 59 623 105L693 54Q667 40 639 28T578 7T507 -7T424 -13Q343 -13 273 16T150 98T67 221T36 377Q36 460 65 531T147 655T268 737T418 767Q484 767 543 747T653 681Q704 636 734 579T765 452Q765 390 749 336T703
242Q667 194 626 174T549 156Q528 157 514 172T495 217Q469 191 437 174T359 156Q326 156 296 170T242 209T205 267T191 339Q191 384 205 426T246 502T310 555T395 575Q433 575 465 560T528 505L542 566ZM261 346Q261 295 288 261T369 226Q402 226 426 239T466
272T491 319T503 372Q510 432 482 469T401 507Q371 507 345 493T301 455T272 404T261 346Z" />
<glyph unicode="A" glyph-name="A" horiz-adv-x="699" d="M352 594L223 292H478L352 594ZM189 214L98 0H6L354 790L693 0H600L511 214H189Z" />
<glyph unicode="B" glyph-name="B" horiz-adv-x="568" d="M160 422H192Q228 422 260 425T316 442T354 480T368 550Q368 593 355 618T319 656T264 672T193 676H160V422ZM76 754H200Q251 754 297 744T377 710T432 647T452 550Q452 504 434 467T378 403Q412 395 438
377T483 332T511 275T521 210Q521 154 500 114T442 49T356 12T251 0H76V754ZM160 78H244Q279 78 313 83T375 104T420 146T437 216Q437 260 418 286T370 327T304 345T233 350H160V78Z" />
<glyph unicode="C" glyph-name="C" horiz-adv-x="717" d="M651 589Q606 636 547 662T421 689Q358 689 303 664T206 595T141 496T117 377Q117 315 141 259T206 159T304 91T423 65Q487 65 546 92T651 165V61Q602 26 544 7T426 -13Q346 -13 275 17T150 100T65 223T33
374Q33 455 64 526T148 651T273 736T426 767Q552 767 651 693V589Z" />
<glyph unicode="D" glyph-name="D" horiz-adv-x="678" d="M221 78Q255 78 287 81T348 92T405 116T459 156Q506 200 529 257T553 377Q553 442 529 501T455 603Q403 649 346 662T221 676H160V78H221ZM76 754H218Q260 754 299 751T374 737T444 709T512 663Q577 607
607 534T637 376Q637 293 607 222T514 95Q480 65 446 47T376 18T300 4T216 0H76V754Z" />
<glyph unicode="E" glyph-name="E" horiz-adv-x="534" d="M76 754H467V676H160V452H458V374H160V78H467V0H76V754Z" />
<glyph unicode="F" glyph-name="F" horiz-adv-x="478" d="M160 676V452H411V374H160V0H76V754H419V676H160Z" />
<glyph unicode="G" glyph-name="G" horiz-adv-x="820" d="M777 379Q778 341 776 306T765 238T741 174T699 113Q647 53 573 20T420 -13Q340 -13 270 18T147 101T63 224T32 375Q32 456 63 527T147 652T272 736T425 767Q525 767 604 725T744 604L683 547Q635 614
572 651T424 689Q359 689 303 664T206 595T140 495T116 374Q116 314 139 259T204 161Q246 119 302 92T418 65Q467 65 515 82T601 130T663 205T687 301H463V379H777Z" />
<glyph unicode="H" glyph-name="H" horiz-adv-x="714" d="M550 448V754H634V0H550V370H164V0H80V754H164V448H550Z" />
<glyph unicode="I" glyph-name="I" horiz-adv-x="239" d="M162 0H78V754H162V0Z" />
<glyph unicode="J" glyph-name="J" horiz-adv-x="314" d="M236 157Q236 112 231 67T198 -16Q175 -47 141 -62T68 -78Q30 -78 -3 -62T-66 -22L-19 43Q1 24 21 12T70 0Q101 0 117 16T141 56T150 107T152 157V754H236V157Z" />
<glyph unicode="K" glyph-name="K" horiz-adv-x="611" d="M481 754H594L240 403L606 0H490L181 346L160 325V0H76V754H160V431L481 754Z" />
<glyph unicode="L" glyph-name="L" horiz-adv-x="375" d="M160 78H368V0H76V754H160V78Z" />
<glyph unicode="M" glyph-name="M" horiz-adv-x="896" d="M174 797L448 164L723 797L876 0H790L693 510H691L448 -31L206 510H204L107 0H21L174 797Z" />
<glyph unicode="N" glyph-name="N" horiz-adv-x="834" d="M81 786L669 170V754H753V-34L165 581V0H81V786Z" />
<glyph unicode="O" glyph-name="O" horiz-adv-x="862" d="M431 689Q366 689 310 665T212 598T146 498T122 377Q122 313 146 257T212 158T310 90T431 65Q495 65 551 90T650 157T716 256T740 377Q740 441 716 498T651 597T553 664T431 689ZM431 767Q512 767 583
737T708 653T793 528T824 376Q824 295 793 224T709 101T584 18T431 -13Q350 -13 279 17T154 100T69 224T38 376Q38 457 69 528T153 652T278 736T431 767Z" />
<glyph unicode="P" glyph-name="P" horiz-adv-x="503" d="M160 408H216Q251 408 282 414T336 435T374 477T388 544Q388 590 371 616T326 656T263 672T191 676H160V408ZM160 0H76V754H200Q249 754 297 748T387 714Q429 685 450 639T472 542Q472 496 454 453T400
380Q362 348 315 339T221 330H160V0Z" />
<glyph unicode="Q" glyph-name="Q" horiz-adv-x="862" d="M658 61Q611 26 550 7T431 -13Q350 -13 279 17T154 100T69 224T38 376Q38 457 69 528T153 652T278 736T431 767Q513 767 584 736T709 652T793 527T824 374Q824 295 797 230T715 108L828 -7H721L658 61ZM657
168Q740 255 740 377Q740 441 716 498T651 597T553 664T431 689Q366 689 310 665T212 598T146 498T122 377Q122 313 146 257T212 158T310 90T431 65Q473 65 518 80T599 121L417 304H527L657 168Z" />
<glyph unicode="R" glyph-name="R" horiz-adv-x="542" d="M160 0H76V754H185Q239 754 288 746T376 714T438 651T461 546Q461 458 411 402T272 338L512 0H409L181 331H160V0ZM160 405H186Q222 405 256 409T317 428T360 469T377 540Q377 586 361 613T319 654T258
672T185 676H160V405Z" />
<glyph unicode="S" glyph-name="S" horiz-adv-x="559" d="M418 607Q395 646 366 667T288 689Q263 689 241 681T201 657T173 620T163 572Q163 548 174 530T203 497T241 473T281 454L331 432Q368 416 400 398T458 355T497 298T512 220Q512 170 494 128T443 54T367
5T275 -13Q230 -13 191 1T122 40T70 102T40 182L122 205Q126 176 139 151T171 106T217 76T273 65Q303 65 331 76T380 106T415 153T428 212Q428 245 416 268T385 308T340 337T289 362L243 382Q210 397 180 414T128 453T92 504T79 575Q79 619 96 654T142 715T210
753T290 767Q353 767 404 737T485 650L418 607Z" />
<glyph unicode="T" glyph-name="T" horiz-adv-x="470" d="M276 0H192V676H10V754H460V676H276V0Z" />
<glyph unicode="U" glyph-name="U" horiz-adv-x="685" d="M158 305Q158 284 158 262Q158 240 161 218T171 176T191 137Q216 102 258 84T343 65Q384 65 424 82T491 132Q506 150 513 171T524 214T528 260Q528 283 528 305V754H612V282Q612 251 610 224T602 170T582
120T546 73Q507 31 454 9T343 -13Q289 -13 238 6T148 64Q123 88 109 112T87 164T77 220T74 282V754H158V305Z" />
<glyph unicode="V" glyph-name="V" horiz-adv-x="624" d="M312 179L527 754H618L312 -45L6 754H97L312 179Z" />
<glyph unicode="W" glyph-name="W" horiz-adv-x="1091" d="M302 189L546 793L790 189L988 754H1079L790 -39L546 568L302 -39L13 754H104L302 189Z" />
<glyph unicode="X" glyph-name="X" horiz-adv-x="564" d="M32 754H128L282 470L436 754H532L328 390L551 0H455L282 310L109 0H13L236 390L32 754Z" />
<glyph unicode="Y" glyph-name="Y" horiz-adv-x="593" d="M8 754H105L297 418L489 754H586L339 324V0H255V324L8 754Z" />
<glyph unicode="Z" glyph-name="Z" horiz-adv-x="586" d="M554 78V0H14L425 676H66V754H565L153 78H554Z" />
<glyph unicode="[" glyph-name="bracketleft" horiz-adv-x="315" d="M186 -166H294V-240H104V788H294V714H186V-166Z" />
<glyph unicode="\" glyph-name="backslash" horiz-adv-x="570" d="M84 825L552 0L487 -30L18 795L84 825Z" />
<glyph unicode="]" glyph-name="bracketright" horiz-adv-x="315" d="M129 714H21V788H211V-240H21V-166H129V714Z" />
<glyph unicode="^" glyph-name="asciicircum" horiz-adv-x="616" d="M272 754H344L550 322H461L308 650L153 322H66L272 754Z" />
<glyph unicode="_" glyph-name="underscore" horiz-adv-x="500" d="M500 -125H0V-75H500V-125Z" />
<glyph unicode="`" glyph-name="grave" horiz-adv-x="358" d="M162 744L281 580L231 552L78 706L162 744Z" />
<glyph unicode="a" glyph-name="a" horiz-adv-x="577" d="M505 0H425V65H423Q361 -13 261 -13Q209 -13 168 7T97 62T52 140T36 234Q36 284 51 329T96 409T167 463T262 483Q310 483 352 462T423 403H425V470H505V0ZM271 409Q236 409 208 395T160 358T129 304T118
240Q118 205 128 173T157 116T205 76T272 61Q311 61 340 75T389 114T419 171T429 239Q429 274 418 305T387 359T338 395T271 409Z" />
<glyph unicode="b" glyph-name="b" horiz-adv-x="577" d="M72 825H152V403H154Q183 441 225 462T315 483Q367 483 409 463T480 409T525 330T541 235Q541 186 525 141T480 62T410 8T316 -13Q267 -13 225 7T154 65H152V0H72V825ZM301 409Q266 409 238 395T190 358T159
304T148 240Q148 205 158 173T187 116T235 76T302 61Q341 61 370 75T419 114T449 171T459 239Q459 274 448 305T417 359T368 395T301 409Z" />
<glyph unicode="c" glyph-name="c" horiz-adv-x="476" d="M425 330H423Q395 365 360 387T277 409Q241 409 211 395T158 357T124 302T111 235Q111 200 122 169T155 113T206 75T273 61Q324 61 360 82T426 142H428V35Q393 12 357 0T279 -13Q226 -13 180 6T101 58T48
136T29 235Q29 287 49 332T103 411T182 464T280 483Q318 483 355 471T425 436V330Z" />
<glyph unicode="d" glyph-name="d" horiz-adv-x="577" d="M425 65H423Q394 27 352 7T261 -13Q209 -13 168 7T97 62T52 140T36 234Q36 284 51 329T96 409T167 463T262 483Q310 483 352 462T423 403H425V825H505V0H425V65ZM271 409Q236 409 208 395T160 358T129
304T118 240Q118 205 128 173T157 116T205 76T272 61Q311 61 340 75T389 114T419 171T429 239Q429 274 418 305T387 359T338 395T271 409Z" />
<glyph unicode="e" glyph-name="e" horiz-adv-x="519" d="M401 286Q397 311 385 333T354 373T313 399T263 409Q237 409 213 400T170 373T137 334T120 286H401ZM116 218Q116 185 127 157T159 107T207 74T270 61Q321 61 355 88T413 158L481 119Q447 56 392 22T264
-13Q211 -13 169 6T96 57T50 134T34 229Q34 281 49 327T93 408T164 463T262 483Q319 483 362 462T433 403T475 318T485 218H116Z" />
<glyph unicode="f" glyph-name="f" horiz-adv-x="274" d="M163 0H83V396H39V470H83V657Q83 686 85 719T104 779Q124 811 156 824T225 838Q239 838 253 836T282 828V747Q268 752 256 755T228 758Q204 758 191 750T171 725T164 684T163 629V470H282V396H163V0Z" />
<glyph unicode="g" glyph-name="g" horiz-adv-x="580" d="M500 23Q500 -5 499 -31T494 -83T480 -132T452 -179Q419 -221 371 -241T270 -262Q221 -262 179 -247T107 -204T58 -136T39 -46H119Q120 -112 162 -150T269 -188Q315 -188 344 -172T391 -129T414 -67T420
9V65H418Q389 28 346 8T255 -13Q204 -13 163 7T92 61T47 139T31 233Q31 282 47 327T92 407T164 462T258 483Q307 483 348 462T418 403H420V470H500V23ZM266 409Q231 409 203 395T155 358T124 304T113 240Q113 205 123 173T152 116T200 76T267 61Q306 61 335 75T384
114T414 171T424 239Q424 274 413 305T382 359T333 395T266 409Z" />
<glyph unicode="h" glyph-name="h" horiz-adv-x="528" d="M156 825V415L158 413Q183 447 215 465T292 483Q341 483 372 467T421 422T445 357T452 279V0H372V265Q372 293 370 319T358 365T328 397T273 409Q232 409 209 392T174 347T159 287T156 223V0H76V825H156Z" />
<glyph unicode="i" glyph-name="i" horiz-adv-x="262" d="M131 704Q154 704 171 687T188 647Q188 623 171 607T131 590Q108 590 91 606T74 647Q74 670 91 687T131 704ZM171 0H91V470H171V0Z" />
<glyph unicode="j" glyph-name="j" horiz-adv-x="262" d="M131 704Q154 704 171 687T188 647Q188 623 171 607T131 590Q108 590 91 606T74 647Q74 670 91 687T131 704ZM171 -264H91V470H171V-264Z" />
<glyph unicode="k" glyph-name="k" horiz-adv-x="470" d="M152 296L323 470H430L229 270L468 0H362L173 214L152 193V0H72V825H152V296Z" />
<glyph unicode="l" glyph-name="l" horiz-adv-x="227" d="M154 0H74V825H154V0Z" />
<glyph unicode="m" glyph-name="m" horiz-adv-x="768" d="M156 419H158Q177 448 206 465T271 483Q313 483 347 463T401 405Q422 444 460 463T542 483Q587 483 616 466T662 422T685 359T692 286V0H612V273Q612 296 610 320T600 364T574 396T526 409Q491 409 471
394T441 356T427 304T424 249V0H344V267Q344 289 342 314T331 360T306 395T260 409Q225 409 204 393T173 353T159 299T156 243V0H76V470H156V419Z" />
<glyph unicode="n" glyph-name="n" horiz-adv-x="528" d="M156 413H158Q183 447 215 465T292 483Q341 483 372 467T421 422T445 357T452 279V0H372V265Q372 293 370 319T358 365T328 397T273 409Q232 409 209 392T174 347T159 287T156 223V0H76V470H156V413Z" />
<glyph unicode="o" glyph-name="o" horiz-adv-x="562" d="M281 409Q244 409 213 395T160 358T126 303T114 235Q114 199 126 168T160 112T213 75T281 61Q318 61 349 74T402 112T436 167T448 235Q448 271 436 302T402 357T349 395T281 409ZM281 -13Q230 -13 185
6T107 58T54 137T34 234Q34 286 53 331T105 410T184 463T281 483Q333 483 378 464T456 410T509 331T528 234Q528 182 509 137T456 59T377 6T281 -13Z" />
<glyph unicode="p" glyph-name="p" horiz-adv-x="577" d="M152 403H154Q183 442 225 462T316 483Q368 483 409 463T480 408T525 328T541 234Q541 184 526 139T481 60T410 7T315 -13Q267 -13 225 7T154 66H152V-264H72V470H152V403ZM301 409Q266 409 238 395T190
358T159 304T148 240Q148 205 158 173T187 116T235 76T302 61Q341 61 370 75T419 114T449 171T459 239Q459 274 448 305T417 359T368 395T301 409Z" />
<glyph unicode="q" glyph-name="q" horiz-adv-x="577" d="M505 -264H425V66H423Q394 28 352 8T262 -13Q209 -13 167 6T96 60T52 138T36 233Q36 282 51 327T96 407T167 462T261 483Q309 483 351 463T423 403H425V470H505V-264ZM271 409Q236 409 208 395T160 358T129
304T118 240Q118 205 128 173T157 116T205 76T272 61Q311 61 340 75T389 114T419 171T429 239Q429 274 418 305T387 359T338 395T271 409Z" />
<glyph unicode="r" glyph-name="r" horiz-adv-x="335" d="M152 419H154Q175 447 197 465T258 483Q278 483 295 477T330 461L292 388Q280 396 270 402T244 409Q211 409 193 391T165 345T154 288T152 235V0H72V470H152V419Z" />
<glyph unicode="s" glyph-name="s" horiz-adv-x="399" d="M266 361Q258 380 241 394T202 409Q181 409 163 395T144 357Q144 341 153 330T178 309T212 292T253 275T293 255T328 229T352 192T362 140Q362 107 350 79T315 30T265 -1T203 -13Q143 -13 100 18T37 106L108
136Q123 103 143 82T204 61Q236 61 258 81T280 133Q280 159 265 175T225 203T174 225T123 251T84 290T68 350Q68 380 79 404T109 446T154 473T208 483Q249 483 283 458T333 396L266 361Z" />
<glyph unicode="t" glyph-name="t" horiz-adv-x="240" d="M160 0H80V396H31V470H80V639H160V470H244V396H160V0Z" />
<glyph unicode="u" glyph-name="u" horiz-adv-x="512" d="M150 208Q150 178 153 152T166 105T198 73T256 61Q292 61 313 73T345 105T359 151T362 208V470H442V199Q442 152 433 113T401 46T344 3T256 -13Q204 -13 169 2T111 46T80 113T70 199V470H150V208Z" />
<glyph unicode="v" glyph-name="v" horiz-adv-x="463" d="M232 154L372 470H462L232 -31L1 470H92L232 154Z" />
<glyph unicode="w" glyph-name="w" horiz-adv-x="760" d="M233 152L379 506L526 152L666 470H757L524 -33L379 317L234 -33L3 470H94L233 152Z" />
<glyph unicode="x" glyph-name="x" horiz-adv-x="498" d="M30 470H128L251 310L374 470H474L302 250L497 0H400L251 191L101 0H1L201 250L30 470Z" />
<glyph unicode="y" glyph-name="y" horiz-adv-x="498" d="M-2 470H91L257 133L409 470H500L153 -264H62L214 44L-2 470Z" />
<glyph unicode="z" glyph-name="z" horiz-adv-x="519" d="M496 74V0H10L349 396H73V470H510L172 74H496Z" />
<glyph unicode="{" glyph-name="braceleft" horiz-adv-x="334" d="M51 306Q76 314 91 327T114 361T124 407T126 466V653Q126 683 135 708T157 751T185 778T211 788H284V714H244Q217 714 213 694T208 638V449Q208 405 198 374T175 321T150 289T132 274Q137 271
149 260T175 227T198 174T208 98V-90Q208 -125 212 -145T244 -166H284V-240H211Q200 -240 185 -231T157 -203T135 -160T126 -105V81Q126 114 124 140T114 187T91 220T51 242V306Z" />
<glyph unicode="|" glyph-name="bar" horiz-adv-x="570" d="M324 -214H246V786H324V-214Z" />
<glyph unicode="}" glyph-name="braceright" horiz-adv-x="334" d="M283 242Q257 234 243 221T220 187T210 141T208 81V-105Q208 -135 199 -160T177 -203T149 -230T123 -240H50V-166H90Q117 -166 121 -146T126 -90V98Q126 142 136 174T159 227T184 259T202 274Q197
277 185 288T159 321T136 373T126 449V638Q126 673 122 693T90 714H50V788H123Q134 788 149 779T177 751T199 708T208 653V466Q208 433 210 407T220 361T242 328T283 306V242Z" />
<glyph unicode="~" glyph-name="asciitilde" horiz-adv-x="616" d="M66 200Q77 230 91 256T122 303T160 335T205 347Q231 347 259 333T314 302Q327 294 340 285T365 267T389 254T411 248Q432 248 451 276T482 345L550 317Q540 287 526 261T495 214T457 182T411
170Q385 170 359 184T309 214Q276 236 251 252T205 268Q184 268 166 241T135 172L66 200Z" />
<glyph unicode="&#x80;" glyph-name="Euro" horiz-adv-x="616" d="M491 333L474 279H157Q176 184 232 129Q293 65 393 65Q454 65 489 77Q517 85 571 121V31Q497 -12 396 -12Q256 -12 171 72Q94 148 71 279H-1L15 333H64Q63 343 63 353Q63 363 63 374V395H-1L15
449H68Q87 588 165 673Q253 767 396 767Q515 767 591 703L571 628Q524 664 492 676Q456 689 391 689Q288 689 224 616Q169 553 152 449H524L507 395H147V377Q147 366 147 355T149 333H491Z" />
</font>
</defs>
</svg>
